<svg data-v-423bf9ae="" xmlns="http://www.w3.org/2000/svg" viewBox="0 0 367 90" class="iconLeft"><!----><!----><!----><g data-v-423bf9ae="" id="836acc98-7bc9-46b9-8c11-ef52a8da325b" fill="#FFFFFF" transform="matrix(4.500439643859863,0,0,4.500439643859863,107.03299713134766,-2.9490201473236084)"><path d="M0.66 14.35L1.81 14.35L2.51 10.19L4.97 10.19C7.01 10.19 8.18 8.95 8.18 6.87C8.18 5.52 7.42 4.58 5.78 4.58L2.30 4.58ZM2.67 9.18L3.28 5.59L5.64 5.59C6.50 5.59 7 5.98 7 6.75C7 6.93 6.99 7.13 6.96 7.29L6.87 7.80C6.73 8.64 6.13 9.18 5.08 9.18ZM14.64 9.90L13.90 14.35L15.05 14.35L16.69 4.58L15.54 4.58L14.81 8.89L11.00 8.89L11.73 4.58L10.58 4.58L8.95 14.35L10.09 14.35L10.84 9.90ZM17.46 14.35L18.61 14.35L19.31 10.19L21.77 10.19C23.81 10.19 24.98 8.95 24.98 6.87C24.98 5.52 24.22 4.58 22.58 4.58L19.10 4.58ZM19.47 9.18L20.08 5.59L22.44 5.59C23.30 5.59 23.80 5.98 23.80 6.75C23.80 6.93 23.79 7.13 23.76 7.29L23.67 7.80C23.53 8.64 22.93 9.18 21.88 9.18ZM27.94 17.32C28.78 17.32 29.16 16.63 29.29 15.85L30.59 8.06L33.52 8.06L33.67 7.13L30.74 7.13L31.11 4.93L34.02 4.93L34.17 3.99L31.75 3.99C30.67 3.99 30.06 4.68 29.90 5.63L29.65 7.13L27.08 7.13L26.92 8.06L29.50 8.06L28.13 16.28L27.87 16.34L25.72 14.04L24.98 14.71L25.83 15.65C26.95 16.87 27.36 17.32 27.94 17.32ZM39.19 12.64L38.91 14.35L40.00 14.35L41.20 7.13L40.11 7.13L39.44 11.12C39.30 11.94 38.77 12.59 38.61 12.77C38.21 13.24 37.72 13.55 37.09 13.55C36.27 13.55 35.88 13.02 35.88 12.17C35.88 12.01 35.90 11.73 35.95 11.40L36.67 7.13L35.57 7.13L34.85 11.49C34.79 11.82 34.76 12.15 34.76 12.43C34.76 13.75 35.52 14.52 36.72 14.52C37.88 14.52 38.60 13.79 39.13 12.64ZM42.83 14.35L43.92 14.35L44.59 10.36C44.73 9.53 45.26 8.89 45.42 8.71C45.82 8.23 46.31 7.92 46.94 7.92C47.75 7.92 48.15 8.46 48.15 9.31C48.15 9.46 48.13 9.74 48.08 10.08L47.36 14.35L48.45 14.35L49.18 9.98C49.24 9.66 49.27 9.32 49.27 9.04C49.27 7.73 48.51 6.96 47.31 6.96C46.14 6.96 45.43 7.69 44.90 8.83L44.84 8.83L45.12 7.13L44.03 7.13ZM54.18 14.52C55.69 14.52 56.60 13.73 57.51 12.26L56.73 11.80C55.58 13.38 54.96 13.57 54.32 13.57C53.27 13.57 52.56 12.99 52.56 11.76C52.56 11.58 52.57 11.42 52.63 11.09L52.77 10.25C53.02 8.74 53.82 7.91 55.05 7.91C55.94 7.91 56.48 8.18 56.76 9.06L57.69 8.69C57.44 7.74 56.70 6.96 55.17 6.96C53.12 6.96 51.45 8.71 51.45 11.47C51.45 13.27 52.39 14.52 54.18 14.52Z"></path></g><defs data-v-423bf9ae=""><linearGradient data-v-423bf9ae="" gradientTransform="rotate(25)" id="5e5f2bab-a2e9-4430-9ca0-6f161d88bf76" x1="0%" y1="0%" x2="100%" y2="0%"><stop data-v-423bf9ae="" offset="0%" style="stop-color: rgb(238, 238, 238); stop-opacity: 1;"></stop><stop data-v-423bf9ae="" offset="100%" style="stop-color: rgb(255, 255, 255); stop-opacity: 1;"></stop></linearGradient></defs><g data-v-423bf9ae="" id="a37f1e33-b431-4728-9109-562e3e1bc624" transform="matrix(1.0239089727401733,0,0,1.0239089727401733,-5.138261795043945,-6.143453121185303)" stroke="none" fill="url(#5e5f2bab-a2e9-4430-9ca0-6f161d88bf76)"><path d="M51.7 55c-.7-2-1.3-4-2-6.4h-.3c-.4 2-1.2 4.2-1.9 6.2l-6 17.1h-5.6l10.7-27.3c.2-.7.4-1.1.4-1.4 0-.4-.1-.9-.4-1.6-1.9-5.2-4.1-9.3-7.7-9.3-.3 0-.7 0-1 .1l.4-4.2c.5-.2 1.3-.2 2.1-.2 5.8 0 8.5 5.6 11.7 14l11.3 30h-5.7l-6-17z"></path><path d="M81.1 93.9H18.2c-6.9 0-12.5-5.6-12.5-12.5V18.5C5.7 11.6 11.3 6 18.2 6h62.9c6.9 0 12.5 5.6 12.5 12.5v62.9c0 6.9-5.6 12.5-12.5 12.5zM18.2 7C11.9 7 6.7 12.2 6.7 18.5v62.9c0 6.3 5.2 11.5 11.5 11.5h62.9c6.3 0 11.5-5.2 11.5-11.5V18.5C92.6 12.2 87.5 7 81.1 7H18.2z"></path></g><!----></svg>